<?xml version="1.0" encoding="UTF-8" standalone="no"?>
<!DOCTYPE svg PUBLIC "-//W3C//DTD SVG 1.1//EN" "http://www.w3.org/Graphics/SVG/1.1/DTD/svg11.dtd">
<svg width="100%" height="100%" viewBox="0 0 1400 170" version="1.1" xmlns="http://www.w3.org/2000/svg" xmlns:xlink="http://www.w3.org/1999/xlink" xml:space="preserve" xmlns:serif="http://www.serif.com/" style="fill-rule:evenodd;clip-rule:evenodd;stroke-linejoin:round;stroke-miterlimit:2;">
    <g transform="matrix(0.600716,0,0,0.600716,-6.377127,31.858131)">
        <path d="M15.61,170L15.61,27.281L156.099,27.281C184.94,27.281 206.2,30.105 219.877,35.755C233.554,41.404 240.393,51.216 240.393,65.191C240.393,74.111 237.457,80.949 231.584,85.706C225.712,90.464 217.312,93.772 206.385,95.63C195.458,97.488 182.339,98.64 167.026,99.086L168.81,97.302C179.96,97.302 190.292,97.6 199.807,98.194C209.322,98.789 217.647,100.127 224.783,102.208C231.919,104.29 237.494,107.486 241.508,111.797C245.522,116.109 247.529,122.055 247.529,129.637C247.529,138.854 244.258,146.436 237.717,152.383C231.175,158.33 221.884,162.753 209.842,165.652C197.8,168.551 183.602,170 167.249,170L15.61,170ZM71.36,128.076L167.249,128.076C175.128,128.076 180.815,127.333 184.309,125.846C187.802,124.36 189.549,121.981 189.549,118.71C189.549,116.48 188.769,114.696 187.208,113.358C185.647,112.02 183.231,111.017 179.96,110.348C176.689,109.679 172.452,109.344 167.249,109.344L71.36,109.344L71.36,128.076ZM71.36,87.936L157.883,87.936C165.762,87.936 171.449,87.193 174.943,85.706C178.436,84.22 180.183,81.841 180.183,78.57C180.183,75.151 178.436,72.735 174.943,71.323C171.449,69.911 165.762,69.205 157.883,69.205L71.36,69.205L71.36,87.936Z" style="fill:rgb(204,255,0);fill-rule:nonzero;"/>
        <path d="M466.737,170L413.217,170L413.217,60.731L466.737,60.731L466.737,170ZM415.447,113.581L415.893,124.285C415.447,127.407 413.997,131.05 411.544,135.212C409.091,139.375 405.709,143.686 401.398,148.146C397.087,152.606 391.809,156.732 385.565,160.523C379.321,164.314 372.185,167.398 364.157,169.777C356.129,172.156 347.209,173.345 337.397,173.345C327.585,173.345 318.294,172.341 309.522,170.334C300.751,168.328 292.946,165.02 286.107,160.411C279.269,155.802 273.917,149.596 270.052,141.791C266.186,133.986 264.254,124.211 264.254,112.466L264.254,60.731L317.773,60.731L317.773,106.891C317.773,115.068 319.148,121.386 321.899,125.846C324.649,130.306 328.998,133.391 334.944,135.101C340.891,136.81 348.547,137.665 357.913,137.665C366.684,137.665 374.824,136.364 382.331,133.763C389.839,131.161 396.455,128.002 402.178,124.285C407.902,120.569 412.325,117.001 415.447,113.581Z" style="fill:rgb(204,255,0);fill-rule:nonzero;"/>
        <path d="M642.237,170L642.237,56.271L695.756,67.421L695.756,170L642.237,170ZM695.756,16.131L747.269,16.131L747.269,51.811L718.056,51.811C712.11,51.662 707.538,51.959 704.342,52.703C701.145,53.446 698.916,54.933 697.652,57.163C696.388,59.393 695.756,62.812 695.756,67.421L642.237,56.271C642.237,47.351 643.909,39.917 647.254,33.971C650.599,28.024 656.174,23.564 663.979,20.591C671.784,17.617 682.376,16.131 695.756,16.131ZM517.58,170L517.58,56.271L571.1,67.421L571.1,170L517.58,170ZM571.1,16.131L622.613,16.131L622.613,51.811L593.4,51.811C587.453,51.662 582.882,51.959 579.685,52.703C576.489,53.446 574.259,54.933 572.995,57.163C571.732,59.393 571.1,62.812 571.1,67.421L517.58,56.271C517.58,47.351 519.253,39.917 522.598,33.971C525.943,28.024 531.518,23.564 539.323,20.591C547.128,17.617 557.72,16.131 571.1,16.131ZM481.231,67.421L747.269,67.421L747.269,100.87L481.231,100.87L481.231,67.421Z" style="fill:rgb(204,255,0);fill-rule:nonzero;"/>
    </g>
    <g transform="matrix(0.628166,0,0,0.628166,485.225873,27.379954)">
        <rect x="21.408" y="25.72" width="29.659" height="144.28" style="fill:white;fill-rule:nonzero;"/>
        <path d="M85.632,59.17L114.621,59.17L114.621,170L85.632,170L85.632,59.17ZM166.134,56.717C172.973,56.717 179.291,57.609 185.089,59.393C190.887,61.177 195.942,63.927 200.253,67.644C204.564,71.36 207.909,76.08 210.288,81.804C212.667,87.528 213.856,94.329 213.856,102.208L213.856,170L184.866,170L184.866,107.337C184.866,97.971 182.599,91.096 178.065,86.71C173.53,82.324 166.134,80.131 155.876,80.131C148.146,80.131 141.158,81.618 134.914,84.591C128.67,87.565 123.616,91.319 119.75,95.853C115.885,100.387 113.655,105.107 113.06,110.013L112.837,98.64C113.581,93.437 115.29,88.382 117.966,83.476C120.642,78.57 124.248,74.073 128.782,69.985C133.316,65.897 138.705,62.663 144.949,60.285C151.193,57.906 158.255,56.717 166.134,56.717Z" style="fill:white;fill-rule:nonzero;"/>
        <path d="M232.365,59.17L318.442,59.17L318.442,81.692L232.365,81.692L232.365,59.17ZM260.909,28.842L289.898,28.842L289.898,170L260.909,170L260.909,28.842Z" style="fill:white;fill-rule:nonzero;"/>
        <path d="M436.409,133.205L464.507,133.205C463.317,140.787 460.158,147.551 455.029,153.498C449.9,159.445 442.95,164.128 434.179,167.547C425.407,170.966 414.703,172.676 402.067,172.676C387.944,172.676 375.456,170.409 364.603,165.875C353.75,161.34 345.277,154.762 339.181,146.139C333.086,137.517 330.038,127.11 330.038,114.919C330.038,102.729 333.012,92.285 338.958,83.588C344.905,74.891 353.193,68.238 363.823,63.63C374.452,59.021 386.903,56.717 401.175,56.717C415.744,56.717 427.86,59.021 437.524,63.63C447.187,68.238 454.36,75.188 459.043,84.48C463.726,93.772 465.696,105.628 464.953,120.048L359.251,120.048C359.994,125.698 362.113,130.827 365.607,135.435C369.1,140.044 373.858,143.686 379.879,146.362C385.899,149.038 393.073,150.376 401.398,150.376C410.615,150.376 418.309,148.778 424.478,145.582C430.648,142.385 434.625,138.26 436.409,133.205ZM399.837,78.793C389.133,78.793 380.436,81.135 373.746,85.818C367.056,90.501 362.745,96.262 360.812,103.1L436.186,103.1C435.442,95.667 431.912,89.758 425.593,85.372C419.275,80.986 410.69,78.793 399.837,78.793Z" style="fill:white;fill-rule:nonzero;"/>
        <path d="M486.583,59.17L515.573,59.17L515.573,170L486.583,170L486.583,59.17ZM558.166,83.03C549.841,83.03 542.63,84.629 536.535,87.825C530.44,91.021 525.534,94.924 521.817,99.532C518.101,104.141 515.499,108.601 514.012,112.912L513.789,100.647C513.938,98.863 514.533,96.225 515.573,92.731C516.614,89.237 518.175,85.446 520.256,81.358C522.338,77.27 525.088,73.33 528.507,69.539C531.927,65.748 536.089,62.663 540.995,60.285C545.901,57.906 551.625,56.717 558.166,56.717L558.166,83.03Z" style="fill:white;fill-rule:nonzero;"/>
        <path d="M629.972,172.453C618.97,172.453 608.973,170.037 599.978,165.206C590.984,160.374 583.848,153.61 578.57,144.913C573.293,136.216 570.654,126.144 570.654,114.696C570.654,102.952 573.33,92.768 578.682,84.145C584.034,75.523 591.281,68.796 600.424,63.964C609.567,59.132 619.937,56.717 631.533,56.717C644.318,56.717 654.613,59.281 662.418,64.41C670.223,69.539 675.909,76.489 679.477,85.26C683.045,94.032 684.829,103.844 684.829,114.696C684.829,121.238 683.789,127.89 681.707,134.655C679.626,141.419 676.43,147.663 672.118,153.387C667.807,159.11 662.158,163.719 655.171,167.213C648.183,170.706 639.784,172.453 629.972,172.453ZM639.338,150.153C648.109,150.153 655.691,148.666 662.084,145.693C668.476,142.72 673.382,138.557 676.801,133.205C680.221,127.853 681.93,121.684 681.93,114.696C681.93,107.114 680.184,100.685 676.69,95.407C673.196,90.129 668.29,86.115 661.972,83.365C655.654,80.615 648.109,79.239 639.338,79.239C626.998,79.239 617.409,82.473 610.571,88.94C603.732,95.407 600.313,103.992 600.313,114.696C600.313,121.832 601.948,128.039 605.219,133.317C608.489,138.594 613.061,142.72 618.933,145.693C624.806,148.666 631.607,150.153 639.338,150.153ZM681.93,59.17L710.92,59.17L710.92,170L683.937,170C683.937,170 683.752,168.551 683.38,165.652C683.008,162.753 682.674,159.073 682.376,154.613C682.079,150.153 681.93,145.767 681.93,141.456L681.93,59.17Z" style="fill:white;fill-rule:nonzero;"/>
        <path d="M868.803,126.292C868.06,135.956 864.975,144.281 859.549,151.268C854.123,158.255 846.652,163.57 837.138,167.213C827.623,170.855 816.324,172.676 803.242,172.676C789.565,172.676 777.337,170.483 766.558,166.098C755.78,161.712 747.306,155.245 741.137,146.697C734.967,138.148 731.882,127.556 731.882,114.919C731.882,102.283 734.967,91.653 741.137,83.03C747.306,74.408 755.78,67.867 766.558,63.407C777.337,58.947 789.565,56.717 803.242,56.717C816.324,56.717 827.549,58.538 836.915,62.18C846.281,65.822 853.677,71.063 859.103,77.901C864.529,84.74 867.688,92.991 868.58,102.654L842.044,102.654C839.516,95.221 834.833,89.423 827.995,85.26C821.156,81.098 812.905,79.016 803.242,79.016C795.511,79.016 788.487,80.354 782.168,83.03C775.85,85.706 770.795,89.683 767.004,94.961C763.213,100.239 761.318,106.891 761.318,114.919C761.318,122.799 763.176,129.377 766.893,134.655C770.61,139.932 775.664,143.872 782.057,146.474C788.45,149.075 795.511,150.376 803.242,150.376C813.648,150.376 822.16,148.295 828.775,144.132C835.391,139.969 839.888,134.023 842.267,126.292L868.803,126.292Z" style="fill:white;fill-rule:nonzero;"/>
        <path d="M882.406,59.17L968.484,59.17L968.484,81.692L882.406,81.692L882.406,59.17ZM910.95,28.842L939.94,28.842L939.94,170L910.95,170L910.95,28.842Z" style="fill:white;fill-rule:nonzero;"/>
        <path d="M1020.22,10.556L1020.22,35.978L986.547,35.978L986.547,10.556L1020.22,10.556ZM988.777,59.17L1017.767,59.17L1017.767,170L988.777,170L988.777,59.17Z" style="fill:white;fill-rule:nonzero;"/>
        <path d="M1107.858,151.045L1097.377,151.045L1137.963,59.17L1169.629,59.17L1116.332,170L1088.903,170L1036.722,59.17L1068.61,59.17L1107.858,151.045Z" style="fill:white;fill-rule:nonzero;"/>
        <path d="M1282.466,133.205L1310.564,133.205C1309.375,140.787 1306.216,147.551 1301.087,153.498C1295.958,159.445 1289.008,164.128 1280.236,167.547C1271.465,170.966 1260.761,172.676 1248.124,172.676C1234.001,172.676 1221.513,170.409 1210.661,165.875C1199.808,161.34 1191.334,154.762 1185.239,146.139C1179.143,137.517 1176.096,127.11 1176.096,114.919C1176.096,102.729 1179.069,92.285 1185.016,83.588C1190.962,74.891 1199.251,68.238 1209.88,63.63C1220.51,59.021 1232.961,56.717 1247.232,56.717C1261.802,56.717 1273.918,59.021 1283.581,63.63C1293.245,68.238 1300.418,75.188 1305.101,84.48C1309.784,93.772 1311.753,105.628 1311.01,120.048L1205.309,120.048C1206.052,125.698 1208.17,130.827 1211.664,135.435C1215.158,140.044 1219.915,143.686 1225.936,146.362C1231.957,149.038 1239.13,150.376 1247.455,150.376C1256.673,150.376 1264.366,148.778 1270.536,145.582C1276.705,142.385 1280.682,138.26 1282.466,133.205ZM1245.894,78.793C1235.191,78.793 1226.494,81.135 1219.804,85.818C1213.114,90.501 1208.802,96.262 1206.87,103.1L1282.243,103.1C1281.5,95.667 1277.969,89.758 1271.651,85.372C1265.333,80.986 1256.747,78.793 1245.894,78.793Z" style="fill:white;fill-rule:nonzero;"/>
    </g>
</svg>
